<?xml version="1.0" encoding="utf-8"?>
<!-- Generator: Adobe Illustrator 24.1.2, SVG Export Plug-In . SVG Version: 6.00 Build 0)  -->
<svg version="1.1" id="Layer_1" xmlns="http://www.w3.org/2000/svg" xmlns:xlink="http://www.w3.org/1999/xlink" x="0px" y="0px"
	 viewBox="0 0 152 176" style="enable-background:new 0 0 152 176;" xml:space="preserve">
<style type="text/css">
	.st0{fill-rule:evenodd;clip-rule:evenodd;fill:#152243;}
	.st1{fill-rule:evenodd;clip-rule:evenodd;fill:#F6F6F7;}
	.st2{fill-rule:evenodd;clip-rule:evenodd;fill:#FFFFFF;}
	.st3{fill-rule:evenodd;clip-rule:evenodd;fill:#818588;}
	.st4{fill:#FFFFFF;}
</style>
<path class="st0" d="M71.1,20.6c-5.4,0.9-9.1,1.4-14.3,3c-4.6,1.4-8.3,3.2-12,5.2c-1.8,1-3.7,2.2-5.3,3.3c-4.9,3.2-10,7.8-13.8,12.3
	C14.1,58,7,77.7,9.4,96.6c2.5,19.6,10,33,23.7,45.4c5.5,4.9,14.7,10.3,22,12.7c10.6,3.6,18.3,4.4,30.6,3.6c9.5-0.6,19-4.5,26.2-8.2
	c6.7-3.5,14.6-9.9,19.2-15.5c2.5-3.1,5-6.2,7.2-10c3.2-5.8,3.1-5.7,5.5-11.7c3.2-7.9,4.9-20.9,3.7-30.5c-2-16.8-9.5-32.2-21.5-43.3
	c-7.2-6.6-14.9-11.5-24.3-14.9C93.9,21.4,80.5,19.1,71.1,20.6"/>
<path class="st1" d="M73.8,23C39,25,8.9,56.5,11.9,94.4c2.9,35.5,32.5,63.7,71.3,61.5c9.1-0.5,19-3.6,26-7.4
	c5.1-2.7,10.8-6.6,14.6-10.3c2.7-2.6,5.5-5.8,7.8-8.7c9.5-11.9,14.5-29.2,13.3-44.8c-1.1-14.5-5.9-25.4-13.8-36.1
	c-1-1.3-2.8-3.5-3.9-4.5c-0.8-0.7-1.3-1.4-2.1-2.1l-2.1-2.1c-4.8-4.6-13.8-10.2-20.6-12.7C93.3,24,84.7,22.4,73.8,23"/>
<path class="st0" d="M72.7,24.5c-15.8,1.1-28.4,8-39.5,17.8c-1.6,1.4-2.5,2.7-3.9,4.2l-3.7,4.5c-9.3,12.8-13.6,27.8-12.4,44.2
	c2.5,33.7,33.3,63,70.9,59.5c34.3-3.2,62.5-32.7,59.4-70.8c-0.8-9.9-3.6-17.4-7.5-25c-3.9-7.7-11.7-16.8-19-21.8
	c-1.5-1.1-3.1-2.3-4.9-3.3C99.8,26.4,87.9,23.4,72.7,24.5"/>
<path class="st2" d="M79.3,55.8c20,0,36.2,16.2,36.2,36.2c0,20-16.2,36.2-36.2,36.2S43.1,112,43.1,92C43.1,72,59.3,55.8,79.3,55.8"
	/>
<path class="st1" d="M74.4,56.4c-11.1,1.9-18.1,6.8-23,13c-5.2,6.6-9.3,16.1-7.7,27.5c2.5,17.9,19.2,33.6,40.4,30.7
	c18.1-2.5,33.7-19.1,30.9-40.5C112.2,67.1,92.8,53.2,74.4,56.4"/>
<path class="st3" d="M61,122c0.5-0.5,1.7-2.9,2-3.7c1-2,1.8-1.7,4.3-1.7l23.3,0c4.4,0,3.5-0.1,5.9,4.5c0,0.1,0.2,0.4,0.2,0.5
	l0.3,0.5c0,0,0.1,0.1,0.1,0.2c2.9-1.3,6.5-4.8,8.2-6.6c20.1-22.1,5.4-58.3-25.6-58.9c-26.1-0.6-43,26.9-32.5,49.7
	c1.6,3.5,3.7,6.4,5.8,8.9l3.8,3.6C58,120.1,59.5,121.2,61,122"/>
<path class="st1" d="M63.2,113.2l31,0c0.3-11.2-0.3-5.7-8.3-15.9c-0.8-1.1-3-3.6-3.5-4.7c2.3,1.2,2.7,2.2,6.3,1.6
	c3.3-0.5,3.7,1,6.1,1.9c3,1.1,4.3-1.1,5.5-2.4c1.6-1.7,2.6-3.3,0.3-5.2l-14-11.1c-3.1-2.8-1.6-4.7-2.4-6.3c-1.8-0.6-3.9,1.8-4.5,2.8
	c-3.5,6.1-8.5-1.5-13.5,10.2C62.8,91.8,62.9,104.3,63.2,113.2"/>
<path class="st1" d="M127.8,71.4c-9.2,2-5.8,15.4,2.5,13.7C139.4,83.4,136,69.7,127.8,71.4"/>
<path class="st0" d="M128.7,73.5c-3,0.5-6,1.9-5.8,5.3c0.4,7.2,12.4,4.8,12.2-0.9C134.9,74.3,132.4,73,128.7,73.5"/>
<path class="st1" d="M40.7,46.9c0.8-0.2,0.7-0.4,1.6-0.6c0.6,0.4,6.7,8,6.4,9.3c-0.1,0.6-0.2,0.4-0.7,0.9c-0.4,0.4,0-0.2-0.4,0.5
	c1.4-0.4,6.2-4.2,6.8-5c1-1.5,1-6.4-4.9-4.5c3.3-5.3-1.4-6.8-6-3.1c-0.5,0.4-0.9,0.8-1.5,1.1C41.5,46,41.1,46.1,40.7,46.9"/>
<path class="st1" d="M113,60.1c0.2,1,1.9,3.1,2.4,3.9c0.5,0.7,0.3,1,1.1,1c-1-1.8-0.9-2,0.7-3.1c0.6-0.4,2.5-1.9,2.9-1.7
	c2.2,1.2-2.6,6.6-1.2,9c0.3,0.5,1.1,1.8,1.7,2.1c0.1-1.9-0.8-1.6,0.2-4.4c0.5-1.5,1-2.8,1.2-4.4c0.8,0.4,1.8,2,4.1,1.3
	c3.5-1.1,1.1-5.5-0.1-7.4c-0.5-0.8-1.9-2.9-2.6-3c0.4,2.3,2.4,0.6-3.9,4.9C112.3,63,115.1,60.5,113,60.1"/>
<path class="st1" d="M58.7,49.5c1.1-0.1,2.9-0.5,3.7-1.2c-0.1,0-0.1-0.1-0.2-0.1c0,0-1.4-0.2-1.6-1.2c-0.2-0.7,0-2.1,0.1-2.8
	c0.8-0.6,3.7-1.5,4.8-1.6c0.6,1.2,2,1.9,2.2,3.3c-0.5,0.4-0.9,0.3-1.2,0.9c0.7,0.3,4-1,4.8-1.4c-0.4-0.3-1.2-0.4-1.8-0.8l-7.1-8.3
	c-0.7-0.8-0.5-1.1-1.4-1.1l-1,11.3C59.8,49.1,59.1,48.2,58.7,49.5"/>
<path class="st1" d="M37.9,69.8c1-0.4,0.4-0.2,1.4-1.5c0.4-0.6,0.9-0.9,0.9-1.6c-0.8,0.1-1.4,1-2.4,0c-0.2-0.2-1.2-1.9-1.4-2.3
	c0.2-0.7,2.1-3.4,2.7-4c1.1,0.1,3.1,0.6,3.9,1l-0.4,1.7c0.7-0.3,2.7-3.3,3.1-4.1c-1.7,0.2-0.8,0.7-3.4,0.2
	c-3.1-0.6-8.2-2.1-10.9-2.4c0.3,1.2,4.3,7.4,5.5,9.1C37.8,67.6,38,67.4,37.9,69.8"/>
<path class="st1" d="M101.7,51c0.5,1,3.1,2.6,4.1,3.4l4.2,3.1c0.7-0.3,1.1-0.8,1.5-1.4c1.1-1.5,0.9-0.7,1.2-1.7
	c-1.3,0.3-2,1.6-4,1.2c-1-0.2-2.6-1.5-3.1-2.4c0.2-1.2,2.3-4.1,3.1-4.8c0.2,0.1,1.7,1,1.8,1.2c0.8,1,0,1.3-0.2,2.5
	c0.8-0.4,2.5-2.7,2.7-3.6c-1.1,0.5-0.6,0.8-1.5,0.9c-0.7,0-1.6-0.6-2-1.1l-0.4-0.4c0.5-0.8,2.5-3.6,3.1-4.1c0.7,0.4,2,1.3,2.6,2
	c1.2,1.3,0.5,2,0.2,3.5c0.9-0.3,1.5-1.7,1.8-2.5c-0.6-0.7-6.6-5.2-7.3-5.3c0.8,2,2,0.3-2.3,5.9c-0.7,1-1.5,1.9-2.1,2.8
	C103.5,52,103.9,51.7,101.7,51"/>
<path class="st1" d="M24.3,70.2l1.3,1c-1.7,1.5-3.4,2.9-3.1,6.2c0.3,2.6,2.2,4.3,4.4,5.1c6.1,2.3,10.5-3,8.2-8.6
	c0.9-0.8,0.7,0.1,1.3-0.7c-0.9-0.6-3.2-1-4.3-1.2c0.6,1.1,4.7,2.4,2.8,6.5c-2.1,4.7-12.2,2.1-11.7-3.1c0.5-4.3,5.1-3.7,5.8-4
	C28.6,70.8,25,69.8,24.3,70.2"/>
<path class="st1" d="M74.5,32.9l1.7,0.4c0.4,1.5,0.2,9.7-0.2,11.3c-0.9,0.2-1.4,0-1.7,0.6c0.7,0.3,9.8,0.4,10.8,0.2l0.2-3.7
	c-1.5,0.5-0.5,2.1-2.5,3c-1.3,0.6-3.6,0.3-4.5-0.3c-0.3-1.5-0.1-9.9,0.3-11.1c0.8-0.1,1.4,0,2-0.4c-0.8-0.5-5.1-0.4-5.4-0.3
	C75,32.7,75.5,32.1,74.5,32.9"/>
<path class="st1" d="M92.4,34.3c0,0,0.1,0,0.1,0.1c0,0.1,0.1,0.1,0.1,0.1l1.1,0.7c0.1,1.2-2.2,7.7-2.8,9.4c-0.2,0.6-0.4,1-0.9,1.2
	c-0.7,0.2-0.2,0-0.8,0l-0.7,0c0,0-0.1,0-0.1,0c0.5,0.8,9.6,3.5,10.2,3.6l1.2-3.5c-1,0.1-0.1-0.3-1.5,1.2c-1.7,1.7-4.2,0.7-5.8-0.5
	c-0.1-1.2,2.9-9.8,3.6-10.6c0.7-0.4,1.2,0.6,2,0C97.7,35.8,93.1,34.1,92.4,34.3"/>
<path class="st0" d="M47.3,49.5c0.5,0.9,1.7,2.5,2.4,3.5c1.5,2.2,3.2,0,3.5-0.6C54.2,50.7,52,45.6,47.3,49.5"/>
<path class="st0" d="M120.7,59.7c1.7,4.7,7.8,2.1,5.6-1.9l-0.9-1.2C124.3,57.1,121.4,59,120.7,59.7"/>
<path class="st0" d="M44.1,44.8c0.4,0.8,2.3,3.6,3,4.2c1.6-0.7,3-2,1.7-4.3C47.8,43.2,45.3,43.1,44.1,44.8"/>
<path class="st0" d="M36.1,63.7c0.5-0.5,2.2-2.8,2.4-3.5L33.1,59c0.2,0.7,0.9,1.8,1.3,2.4L36.1,63.7z"/>
<path class="st0" d="M60.8,43.4l4-1.2l-3.1-3.9c-0.4-0.3,0.1-0.1-0.4-0.2L60.8,43.4z"/>
<path class="st4" d="M112.3,129.5l0.5-0.4c0.4,0.4,0.8,0.6,1.3,0.6c0.5,0,1-0.2,1.5-0.6c0.4-0.4,0.7-0.8,0.8-1.2
	c0.1-0.4,0-0.8-0.3-1.1c-0.3-0.3-0.6-0.5-0.9-0.5c-0.3,0-0.8,0.1-1.4,0.5l-0.6,0.3c-0.7,0.4-1.2,0.5-1.7,0.5c-0.4,0-0.8-0.3-1.2-0.7
	c-0.4-0.4-0.6-1-0.5-1.5c0.1-0.6,0.4-1.1,1-1.6c0.6-0.5,1.2-0.8,1.7-0.8c0.6,0,1.1,0.3,1.6,0.8l-0.5,0.5c-0.4-0.4-0.7-0.6-1.2-0.6
	c-0.4,0-0.9,0.2-1.3,0.6c-0.4,0.4-0.6,0.7-0.7,1.1c-0.1,0.4,0.1,0.7,0.3,1.1c0.2,0.3,0.5,0.4,0.7,0.4c0.3,0,0.6-0.1,1-0.3l0.8-0.4
	c0.8-0.4,1.4-0.6,1.9-0.6c0.5,0,0.9,0.2,1.3,0.7c0.4,0.5,0.6,1,0.5,1.6c-0.1,0.6-0.4,1.1-1,1.7c-0.7,0.6-1.3,0.9-1.9,0.9
	C113.5,130.4,112.9,130.1,112.3,129.5L112.3,129.5z M103.2,134.4c-0.7-1-1-1.9-0.8-2.9c0.1-0.9,0.6-1.7,1.4-2.2
	c0.9-0.6,1.7-0.8,2.6-0.5c0.9,0.2,1.7,0.8,2.4,1.8c0.7,1,1,1.9,0.8,2.9c-0.1,0.9-0.6,1.7-1.4,2.3c-0.9,0.6-1.7,0.8-2.6,0.5
	C104.6,136,103.9,135.3,103.2,134.4 M103.8,134c0.6,0.8,1.2,1.4,1.9,1.6c0.7,0.2,1.4,0.1,2.1-0.4c0.7-0.5,1.1-1.1,1.1-1.8
	c0.1-0.8-0.2-1.6-0.7-2.4c-0.6-0.8-1.2-1.4-2-1.6c-0.7-0.2-1.4-0.1-2.1,0.4c-0.7,0.5-1,1.1-1.1,1.8
	C102.9,132.3,103.2,133.1,103.8,134 M96.3,141.3l-2.9-6.8l0.7-0.3l6.3,4.2l-2.5-5.8l0.6-0.3l2.9,6.8l-0.7,0.3l-6.3-4.2l2.5,5.8
	L96.3,141.3z M86.5,143.7l1.2-7.8l0.8-0.2l4.3,6.6l-0.7,0.1l-1.3-2l-3.2,0.7l-0.4,2.4L86.5,143.7z M87.7,140.6l2.8-0.6l-2.2-3.4
	L87.7,140.6z M78,144.4l-0.5-7.3l2.4-0.2c0.4,0,0.8,0,1,0c0.2,0,0.5,0.1,0.7,0.2c0.3,0.1,0.5,0.3,0.7,0.6c0.2,0.3,0.3,0.6,0.3,0.9
	c0,0.4-0.1,0.7-0.2,1c-0.2,0.3-0.4,0.5-0.8,0.7c0.5,0.1,0.8,0.3,1.1,0.6c0.3,0.3,0.4,0.7,0.5,1.2c0,0.4,0,0.8-0.2,1.1
	c-0.2,0.3-0.5,0.6-0.8,0.7c-0.1,0.1-0.4,0.1-0.7,0.2c-0.3,0-0.8,0.1-1.4,0.1L78,144.4z M79.9,137.5l-1.6,0.1l0.2,2.7l1.6-0.1
	c0.8,0,1.3-0.2,1.6-0.4c0.3-0.2,0.4-0.6,0.4-1.1c0-0.5-0.2-0.8-0.5-1C81.2,137.5,80.6,137.5,79.9,137.5 M78.7,143.8l2-0.1
	c0.7,0,1.2-0.2,1.5-0.4c0.3-0.2,0.4-0.6,0.4-1.1c0-0.5-0.2-0.9-0.6-1.1c-0.3-0.2-0.8-0.3-1.4-0.3l-2,0.1L78.7,143.8z M72.8,144
	l0.7-7.3l0.7,0.1l-0.7,7.3L72.8,144z M63.4,142.2l1.8-7.1l2.4,0.6c0.6,0.1,0.9,0.3,1.2,0.4c0.2,0.1,0.4,0.2,0.6,0.4
	c0.2,0.2,0.4,0.5,0.5,0.8c0.1,0.3,0.1,0.7,0,1c-0.1,0.4-0.3,0.8-0.6,1c-0.3,0.2-0.6,0.4-1,0.4c0.3,0.2,0.4,0.4,0.5,0.6
	c0.1,0.2,0.1,0.7,0,1.3l-0.2,1.1c0,0.2,0,0.3,0,0.4c0,0.1,0,0.2,0.1,0.3l0,0.1l-0.7-0.2c0-0.1,0-0.2,0-0.3c0-0.1,0-0.3,0.1-0.5
	l0.2-1c0.1-0.7,0.1-1.1,0-1.3c-0.1-0.2-0.5-0.4-1-0.6l-2.1-0.5l-0.8,3.2L63.4,142.2z M65.1,138.6l1.9,0.5c0.7,0.2,1.2,0.2,1.5,0
	c0.4-0.1,0.6-0.5,0.7-1c0.1-0.2,0.1-0.5,0-0.7c0-0.2-0.1-0.4-0.3-0.6c-0.1-0.1-0.3-0.2-0.4-0.3c-0.2-0.1-0.5-0.2-0.9-0.3l-0.3-0.1
	l-1.6-0.4L65.1,138.6z M59.8,138.5l0.6,0.3c-0.4,0.7-0.9,1.2-1.6,1.4c-0.7,0.2-1.4,0.2-2.2-0.2c-0.9-0.4-1.5-1-1.7-1.9
	c-0.2-0.9-0.1-1.9,0.4-3c0.5-1.1,1.1-1.8,1.9-2.2c0.8-0.4,1.7-0.4,2.6,0c0.8,0.3,1.3,0.8,1.6,1.4c0.3,0.6,0.3,1.2,0.1,1.9l-0.6-0.3
	c0.2-0.5,0.1-1-0.1-1.4c-0.2-0.4-0.6-0.8-1.2-1c-0.7-0.3-1.4-0.3-2,0c-0.6,0.3-1.2,1-1.6,1.9c-0.4,0.9-0.5,1.8-0.4,2.5
	c0.2,0.7,0.6,1.2,1.4,1.6c0.6,0.3,1.1,0.3,1.7,0.1C59.1,139.5,59.5,139.1,59.8,138.5 M47.4,131.9l0.6,0.4c-0.3,0.5-0.4,1-0.3,1.4
	c0.1,0.5,0.4,0.9,1,1.3c0.5,0.3,0.9,0.5,1.3,0.5c0.4,0,0.8-0.2,1-0.6c0.2-0.3,0.3-0.7,0.3-1c-0.1-0.3-0.3-0.7-0.8-1.3L50,132
	c-0.5-0.6-0.8-1.1-0.9-1.5c-0.1-0.4,0.1-0.8,0.4-1.3c0.3-0.5,0.8-0.8,1.4-0.8c0.6,0,1.1,0.1,1.7,0.6c0.6,0.4,1,0.9,1.1,1.5
	c0.1,0.6,0,1.1-0.4,1.7l-0.6-0.4c0.3-0.4,0.4-0.9,0.3-1.3c-0.1-0.4-0.4-0.8-0.9-1.1c-0.4-0.3-0.9-0.4-1.2-0.4c-0.4,0-0.7,0.2-1,0.6
	c-0.2,0.3-0.3,0.6-0.2,0.8c0,0.3,0.2,0.6,0.5,0.9l0.6,0.7c0.6,0.7,0.9,1.2,1,1.7c0.1,0.5,0,0.9-0.3,1.4c-0.4,0.5-0.9,0.8-1.4,0.9
	c-0.6,0.1-1.2-0.1-1.8-0.6c-0.7-0.5-1.2-1.1-1.3-1.7C46.8,133.2,46.9,132.5,47.4,131.9L47.4,131.9z M39.5,128.1l4.9-5.5l3.6,3.2
	l-0.4,0.4l-3.1-2.8l-1.8,2l2.8,2.5l-0.4,0.4l-2.8-2.5l-1.9,2.1l3.2,2.9l-0.4,0.4L39.5,128.1z"/>
</svg>
